<?xml version="1.0" encoding="utf-8"?>
<!-- Generator: Adobe Illustrator 16.0.0, SVG Export Plug-In . SVG Version: 6.00 Build 0)  -->
<!DOCTYPE svg PUBLIC "-//W3C//DTD SVG 1.1//EN" "http://www.w3.org/Graphics/SVG/1.1/DTD/svg11.dtd">
<svg version="1.1" id="Layer_1" focusable="false" xmlns="http://www.w3.org/2000/svg" xmlns:xlink="http://www.w3.org/1999/xlink"
	 x="0px" y="0px" width="3000px" height="2000px" viewBox="0 0 3000 2000" enable-background="new 0 0 3000 2000"
	 xml:space="preserve">
<path fill="#073A52" d="M1671.875,1625h93.75c25.889,0,46.875-20.986,46.875-46.875v-843.75c0-25.889-20.986-46.875-46.875-46.875
	h-93.75c-25.889,0-46.875,20.986-46.875,46.875v843.75C1625,1604.014,1645.986,1625,1671.875,1625z M2312.5,312.5h-321.914
	L1857.773,91.016C1823.869,34.521,1762.801-0.031,1696.914,0h-393.828c-65.859-0.004-126.892,34.545-160.781,91.016L1009.414,312.5
	H687.5c-34.518,0-62.5,27.982-62.5,62.5v62.5c0,34.518,27.982,62.5,62.5,62.5H750v1312.5c0,103.554,83.946,187.5,187.5,187.5l0,0
	h1125c103.554,0,187.5-83.946,187.5-187.5l0,0V500h62.5c34.518,0,62.5-27.982,62.5-62.5V375
	C2375,340.482,2347.018,312.5,2312.5,312.5z M1296.25,198.867c4.25-7.073,11.905-11.391,20.156-11.367h367.188
	c8.237-0.009,15.875,4.306,20.117,11.367l68.203,113.633h-543.828L1296.25,198.867z M2062.5,1812.5h-1125V500h1125V1812.5z
	 M1234.375,1625h93.75c25.889,0,46.875-20.986,46.875-46.875v-843.75c0-25.889-20.986-46.875-46.875-46.875h-93.75
	c-25.889,0-46.875,20.986-46.875,46.875v843.75C1187.5,1604.014,1208.486,1625,1234.375,1625z"/>
</svg>
